<svg xmlns="http://www.w3.org/2000/svg" width="700" height="700" viewBox="0 0 700 700"><defs><radialGradient id="g"><stop stop-color="#e4b89b"/><stop offset="1" stop-color="#472a27"/></radialGradient><filter id="n"><feTurbulence type="fractalNoise" baseFrequency=".75" numOctaves="3" stitchTiles="stitch"/><feColorMatrix type="saturate" values="0"/><feComponentTransfer><feFuncA type="linear" slope=".12"/></feComponentTransfer><feBlend in="SourceGraphic" mode="soft-light"/></filter></defs><rect width="700" height="700" fill="#472a27"/><g filter="url(#n)"><circle cx="350" cy="320" r="260" fill="url(#g)"/><ellipse cx="350" cy="290" rx="65" ry="55" fill="none" stroke="#e4b89b" stroke-width=".9" opacity="0.3"/><ellipse cx="350" cy="295" rx="75" ry="65" fill="none" stroke="#e4b89b" stroke-width=".9" opacity="0.325"/><ellipse cx="350" cy="300" rx="85" ry="75" fill="none" stroke="#e4b89b" stroke-width=".9" opacity="0.35"/><ellipse cx="350" cy="305" rx="95" ry="85" fill="none" stroke="#e4b89b" stroke-width=".9" opacity="0.375"/><ellipse cx="350" cy="310" rx="105" ry="95" fill="none" stroke="#e4b89b" stroke-width=".9" opacity="0.4"/><ellipse cx="350" cy="315" rx="115" ry="105" fill="none" stroke="#e4b89b" stroke-width=".9" opacity="0.425"/><ellipse cx="350" cy="320" rx="125" ry="115" fill="none" stroke="#e4b89b" stroke-width=".9" opacity="0.45"/><ellipse cx="350" cy="325" rx="135" ry="125" fill="none" stroke="#e4b89b" stroke-width=".9" opacity="0.475"/><ellipse cx="350" cy="330" rx="145" ry="135" fill="none" stroke="#e4b89b" stroke-width=".9" opacity="0.5"/><ellipse cx="350" cy="335" rx="155" ry="145" fill="none" stroke="#e4b89b" stroke-width=".9" opacity="0.525"/><ellipse cx="350" cy="340" rx="165" ry="155" fill="none" stroke="#e4b89b" stroke-width=".9" opacity="0.55"/><ellipse cx="350" cy="345" rx="175" ry="165" fill="none" stroke="#e4b89b" stroke-width=".9" opacity="0.575"/><ellipse cx="350" cy="350" rx="185" ry="175" fill="none" stroke="#e4b89b" stroke-width=".9" opacity="0.6000000000000001"/><ellipse cx="350" cy="355" rx="195" ry="185" fill="none" stroke="#e4b89b" stroke-width=".9" opacity="0.625"/><ellipse cx="350" cy="360" rx="205" ry="195" fill="none" stroke="#e4b89b" stroke-width=".9" opacity="0.65"/><ellipse cx="350" cy="365" rx="215" ry="205" fill="none" stroke="#e4b89b" stroke-width=".9" opacity="0.675"/><ellipse cx="350" cy="370" rx="225" ry="215" fill="none" stroke="#e4b89b" stroke-width=".9" opacity="0.7"/><ellipse cx="350" cy="375" rx="235" ry="225" fill="none" stroke="#e4b89b" stroke-width=".9" opacity="0.7250000000000001"/><ellipse cx="350" cy="380" rx="245" ry="235" fill="none" stroke="#e4b89b" stroke-width=".9" opacity="0.75"/><path d="M0 440 Q160 365 340 466 T700 440V700H0Z" fill="#472a27" opacity=".65"/><path d="M0 500 Q200 420 410 550T700 510V700H0Z" fill="#472a27" opacity=".65"/></g><text x="45" y="639" fill="#e4b89b" font-family="sans-serif" font-size="11" letter-spacing="6">SOFT / 02</text></svg>
